HIERARCHY
ROOT Hips
{
	OFFSET 0.000000 0.000000 0.000000
	CHANNELS 6 Xposition Yposition Zposition Zrotation Yrotation Xrotation 
	JOINT LHipJoint
	{
		OFFSET 0.000000 0.000000 0.000000
		CHANNELS 3 Zrotation Yrotation Xrotation
		JOINT LeftUpLeg
		{
			OFFSET 1.363060 -1.794630 0.839290
			CHANNELS 3 Zrotation Yrotation Xrotation
			JOINT LeftLeg
			{
				OFFSET 2.448110 -6.726130 0.000000
				CHANNELS 3 Zrotation Yrotation Xrotation
				JOINT LeftFoot
				{
					OFFSET 2.562200 -7.039590 0.000000
					CHANNELS 3 Zrotation Yrotation Xrotation
					JOINT LeftToeBase
					{
						OFFSET 0.157640 -0.433110 2.322550
						CHANNELS 3 Zrotation Yrotation Xrotation
						End Site
						{
							OFFSET 0.000000 0.000000 0.000000
						}
					}
				}
			}
		}
	}
	JOINT RHipJoint
	{
		OFFSET 0.000000 0.000000 0.000000
		CHANNELS 3 Zrotation Yrotation Xrotation
		JOINT RightUpLeg
		{
			OFFSET -1.305520 -1.794630 0.839290
			CHANNELS 3 Zrotation Yrotation Xrotation
			JOINT RightLeg
			{
				OFFSET -2.542530 -6.985550 0.000000
				CHANNELS 3 Zrotation Yrotation Xrotation
				JOINT RightFoot
				{
					OFFSET -2.568260 -7.056230 0.000000
					CHANNELS 3 Zrotation Yrotation Xrotation
					JOINT RightToeBase
					{
						OFFSET -0.164730 -0.452590 2.363150
						CHANNELS 3 Zrotation Yrotation Xrotation
						End Site
						{
							OFFSET 0.000000 0.000000 0.000000
						}
					}
				}
			}
		}
	}
	JOINT LowerBack
	{
		OFFSET 0.000000 0.000000 0.000000
		CHANNELS 3 Zrotation Yrotation Xrotation
		JOINT Spine
		{
			OFFSET 0.028270 2.035590 -0.193380
			CHANNELS 3 Zrotation Yrotation Xrotation
			JOINT Spine1
			{
				OFFSET 0.056720 2.048850 -0.042750
				CHANNELS 3 Zrotation Yrotation Xrotation
				JOINT Neck
				{
					OFFSET 0.000000 0.000000 0.000000
					CHANNELS 3 Zrotation Yrotation Xrotation
					JOINT Neck1
					{
						OFFSET -0.054170 1.746240 0.172020
						CHANNELS 3 Zrotation Yrotation Xrotation
						JOINT Head
						{
							OFFSET 0.104070 1.761360 -0.123970
							CHANNELS 3 Zrotation Yrotation Xrotation
							End Site
							{
								OFFSET 0.000000 0.000000 0.000000
							}
						}
					}
				}
				JOINT LeftShoulder
				{
					OFFSET 0.000000 0.000000 0.000000
					CHANNELS 3 Zrotation Yrotation Xrotation
					JOINT LeftArm
					{
						OFFSET 3.362410 1.200890 -0.311210
						CHANNELS 3 Zrotation Yrotation Xrotation
						JOINT LeftForeArm
						{
							OFFSET 4.983000 -0.000000 -0.000000
							CHANNELS 3 Zrotation Yrotation Xrotation
							JOINT LeftHand
							{
								OFFSET 3.483560 -0.000000 -0.000000
								CHANNELS 3 Zrotation Yrotation Xrotation
								JOINT LeftFingerBase
								{
									OFFSET 0.000000 0.000000 0.000000
									CHANNELS 3 Zrotation Yrotation Xrotation
									JOINT LeftHandIndex1
									{
										OFFSET 0.715260 -0.000000 -0.000000
										CHANNELS 3 Zrotation Yrotation Xrotation
										End Site
										{
											OFFSET 0.000000 0.000000 0.000000
										}
									}
								}
								JOINT LThumb
								{
									OFFSET 0.000000 0.000000 0.000000
									CHANNELS 3 Zrotation Yrotation Xrotation
									End Site
									{
										OFFSET 0.000000 0.000000 0.000000
									}
								}
							}
						}
					}
				}
				JOINT RightShoulder
				{
					OFFSET 0.000000 0.000000 0.000000
					CHANNELS 3 Zrotation Yrotation Xrotation
					JOINT RightArm
					{
						OFFSET -3.136600 1.374050 -0.404650
						CHANNELS 3 Zrotation Yrotation Xrotation
						JOINT RightForeArm
						{
							OFFSET -5.241900 -0.000000 -0.000000
							CHANNELS 3 Zrotation Yrotation Xrotation
							JOINT RightHand
							{
								OFFSET -3.444170 -0.000000 -0.000000
								CHANNELS 3 Zrotation Yrotation Xrotation
								JOINT RightFingerBase
								{
									OFFSET 0.000000 0.000000 0.000000
									CHANNELS 3 Zrotation Yrotation Xrotation
									JOINT RightHandIndex1
									{
										OFFSET -0.622530 -0.000000 -0.000000
										CHANNELS 3 Zrotation Yrotation Xrotation
										End Site
										{
											OFFSET 0.000000 0.000000 0.000000
										}
									}
								}
								JOINT RThumb
								{
									OFFSET 0.000000 0.000000 0.000000
									CHANNELS 3 Zrotation Yrotation Xrotation
									End Site
									{
										OFFSET 0.000000 0.000000 0.000000
									}
								}
							}
						}
					}
				}
			}
		}
	}
}
MOTION
Frames: 12
Frame Time: 0.008333
-7.516158 14.931254 1.817194 -178.297787 85.158243 -114.659436 -6.865030 -3.583716 -0.994792 -9.213909 -6.382421 -25.303452 -0.778321 7.847955 22.655040 0.475207 5.695001 21.481355 0.373100 -3.923000 -10.860300 0.876815 3.857207 -5.468725 1.238928 23.504794 -93.144044 -18.262880 -21.923932 84.232675 -0.171524 -6.325961 -20.472942 -0.930800 6.145700 -17.207900 -3.935813 0.747883 8.663778 -0.180152 1.084150 -4.992605 -0.241676 0.560776 -5.976035 -10.569161 2.322650 -10.773809 22.771010 2.826782 -11.162648 6.385300 0.511400 -4.254000 -5.487441 -11.123855 -2.297502 -28.575983 -53.579908 30.130116 30.098913 -36.998363 -11.470721 -0.196586 0.036876 17.154356 72.059122 32.076600 58.717600 -7.125000 0.000000 0.000000 86.410000 -71.581700 -105.624200 5.896330 6.334032 3.817869 61.279025 54.043742 44.232821 -41.843844 43.059841 -18.191695 -0.825776 0.195588 16.688502 -71.816451 34.025884 -59.643300 7.125000 0.000000 0.000000 -18.834100 33.472200 -26.891500 
-7.439482 14.952238 1.824113 -173.708548 85.198903 -109.974172 -6.723662 -3.502485 -0.994830 -9.040896 -6.203107 -25.494826 -0.792343 7.872155 22.678268 0.696999 5.419548 22.479938 0.452800 -4.316900 -11.970000 1.012597 4.012393 -5.476979 1.140573 23.823811 -92.739370 -18.200805 -21.936074 84.054749 -0.240477 -6.054963 -20.534442 -0.786700 5.662200 -15.807500 -3.715171 0.756463 8.654238 -0.173439 1.072906 -5.043929 -0.321111 0.571640 -5.989581 -10.636129 2.348234 -11.046195 22.858923 2.869970 -10.980196 6.410200 0.554100 -4.159300 -5.488321 -11.059716 -2.266098 -28.186769 -53.272273 29.822956 30.083038 -37.026971 -11.463960 -0.195884 0.035551 17.162335 71.738459 32.070615 58.230900 -7.125000 0.000000 0.000000 85.378400 -71.651300 -104.429000 5.909715 6.313296 3.883974 61.906243 53.758629 44.736235 -42.187584 43.344298 -18.438100 -0.836690 0.187737 16.642817 -71.126850 34.048170 -58.655500 7.125000 0.000000 0.000000 -18.467600 32.809400 -26.291000 
-7.361445 14.961085 1.823433 -175.396335 85.027077 -111.994172 -6.780311 -3.477958 -0.919084 -8.844621 -6.245219 -25.144057 -0.797409 7.849862 22.690562 0.873170 5.184172 23.344576 0.500500 -4.535600 -12.588600 1.035839 3.990125 -5.488479 1.311824 23.778060 -91.837986 -18.167797 -21.926777 83.966654 -0.375908 -5.625057 -20.835428 -0.604100 4.975300 -13.838200 -3.394948 0.738372 9.006640 -0.207292 1.064997 -4.961885 -0.593007 0.528020 -6.038688 -10.496639 2.300420 -11.025162 22.856579 2.792006 -10.939933 6.384800 0.507300 -4.153400 -5.486153 -11.045168 -2.287883 -28.141541 -53.286472 30.005714 30.055889 -37.011731 -11.454311 -0.195943 0.033481 17.077693 72.348506 32.155288 59.218800 -7.125000 0.000000 0.000000 87.645700 -71.568600 -106.966500 5.899623 6.264060 3.998176 62.237996 54.459084 45.084205 -41.298787 42.677539 -17.795727 -0.845227 0.156119 15.895976 -70.866476 34.097194 -58.346100 7.125000 0.000000 0.000000 -18.289400 32.649200 -26.010600 
-7.278871 14.983316 1.825701 -177.135700 84.941950 -113.825661 -6.824043 -3.499616 -0.901101 -8.663133 -6.366834 -25.026366 -0.789945 7.862675 22.789350 1.084964 4.901070 24.408859 0.472700 -4.409500 -12.231700 1.027830 3.963554 -5.475553 1.410723 23.707585 -91.169339 -18.084061 -21.916067 83.735917 -0.454708 -5.417538 -21.088508 -0.598200 4.951400 -13.770000 -3.343404 0.604799 9.338680 -0.109527 0.901704 -5.008450 -0.470845 0.449890 -6.255649 -10.669687 2.228785 -11.686636 22.919468 2.687648 -10.324206 6.391800 0.531700 -3.843900 -5.484515 -10.990817 -2.276131 -28.333509 -52.992576 29.884863 30.070554 -36.951773 -11.455224 -0.195007 0.041446 17.182633 72.309113 32.093192 59.098700 -7.125000 0.000000 0.000000 87.214700 -71.525100 -106.555300 5.924942 6.267338 4.022276 62.869350 53.686778 44.842581 -42.019644 43.333726 -18.346741 -0.810607 0.211478 17.074179 -71.931279 34.377423 -60.009000 7.125000 0.000000 0.000000 -18.746200 33.879300 -26.785100 
-7.209455 14.998855 1.835229 -174.794276 85.036852 -111.199345 -6.703291 -3.528327 -0.980135 -8.539377 -6.291131 -25.422110 -0.779419 7.939898 23.014918 1.400558 4.400246 25.645421 0.488300 -4.480500 -12.432700 1.094209 4.052119 -5.462220 1.129289 24.021381 -91.039830 -17.970324 -21.929668 83.419669 -0.407261 -5.647508 -21.139243 -0.679300 5.269900 -14.680000 -3.453602 0.849132 8.896520 -0.167840 1.214149 -5.016764 -0.463163 0.614474 -6.073978 -10.296187 2.148543 -11.369187 22.661677 2.557125 -10.520186 6.257300 0.429900 -3.947300 -5.488156 -10.994989 -2.334376 -28.756972 -53.345070 30.485087 30.114174 -36.936890 -11.475422 -0.200625 0.040970 17.183106 72.234638 32.350021 59.170400 -7.125000 0.000000 0.000000 87.878200 -71.691800 -107.071900 5.916360 6.310969 4.025680 62.888407 53.319894 43.861795 -41.919280 43.365574 -18.312664 -0.791781 0.236756 17.430306 -72.342125 35.083018 -61.003900 7.125000 0.000000 0.000000 -18.623900 34.895200 -26.660400 
-7.140832 15.008837 1.840560 -177.671761 85.100968 -114.209255 -6.753045 -3.611043 -0.969839 -8.510835 -6.309840 -25.453592 -0.759285 8.009296 23.359191 1.764999 3.628559 26.697747 0.424400 -4.180900 -11.586200 1.056068 3.996501 -5.434694 1.043507 24.013820 -90.428705 -17.879125 -21.924861 83.170663 -0.415992 -5.707035 -21.318792 -0.694900 5.328800 -14.848700 -3.668710 0.639714 9.315866 -0.049245 0.941496 -5.131754 -0.190999 0.502678 -6.420495 -10.544347 2.299624 -11.362228 22.721849 2.707656 -10.233756 6.303900 0.523600 -3.890400 -5.499801 -10.960758 -2.288963 -28.919204 -52.831262 30.341714 30.184519 -36.903570 -11.511656 -0.205717 0.048784 17.432693 72.011201 32.696591 59.062600 -7.125000 0.000000 0.000000 88.297900 -71.930600 -107.241900 5.937076 6.262458 4.095591 63.449510 53.470680 44.958452 -41.824311 43.293033 -18.228891 -0.792784 0.222393 17.501736 -72.382299 34.455681 -60.711200 7.125000 0.000000 0.000000 -18.958900 34.384500 -27.138700 
-7.071983 15.026078 1.844303 179.504933 85.081095 -117.074075 -6.769469 -3.708291 -0.999184 -8.389737 -6.330721 -25.598862 -0.726654 8.102010 23.745037 2.109845 2.914797 27.824724 0.318500 -3.628000 -10.032400 1.008949 3.947934 -5.408321 0.880397 24.030124 -89.891544 -17.775459 -21.920731 82.880699 -0.445875 -5.651795 -21.455972 -0.725800 5.443400 -15.177600 -3.764296 0.631966 9.582990 -0.026810 0.936695 -5.169605 -0.145117 0.504123 -6.650540 -10.516652 2.275590 -11.282349 22.629054 2.645221 -10.123347 6.266000 0.498000 -3.863700 -5.509867 -10.976201 -2.281067 -29.272562 -52.813940 30.900582 30.209524 -36.839550 -11.509050 -0.200789 0.059711 17.106064 71.368219 31.989114 57.571100 -7.125000 0.000000 0.000000 83.652500 -71.612900 -102.591500 5.938687 6.300659 4.041148 63.231192 53.214922 44.825706 -41.702022 43.221447 -18.140301 -0.802286 0.194410 17.543790 -71.886028 33.858460 -59.651700 7.125000 0.000000 0.000000 -18.984500 33.370800 -27.112700 
-6.999390 15.050011 1.849520 178.854313 84.962963 -117.648026 -6.698659 -3.779214 -1.055806 -8.124873 -6.305844 -25.880260 -0.708625 8.185839 24.067023 2.479714 2.213832 29.200814 0.301000 -3.527800 -9.751800 0.999762 3.957203 -5.384176 0.814610 24.071815 -89.441484 -17.640761 -21.912261 82.500750 -0.429729 -5.671295 -21.367346 -0.849300 5.877700 -16.430000 -3.689960 0.685817 9.664405 0.011125 1.012876 -5.203922 -0.143354 0.550538 -6.789960 -10.539308 2.190991 -11.381202 22.605334 2.515246 -9.935652 6.252500 0.454500 -3.774100 -5.512086 -10.987942 -2.297852 -29.693943 -52.935579 31.396138 30.158650 -36.717234 -11.468992 -0.202975 0.065207 17.227974 71.537937 32.049487 57.860300 -7.125000 0.000000 0.000000 84.341500 -71.606400 -103.352300 5.940916 6.357265 3.976802 62.940327 52.905753 44.546861 -41.491788 43.107672 -17.995896 -0.818010 0.166314 17.488090 -70.998348 33.640002 -58.250400 7.125000 0.000000 0.000000 -18.614700 32.317500 -26.476500 
-6.927932 15.075985 1.854625 -179.937387 84.951940 -116.317104 -6.575923 -3.824479 -1.136345 -7.898956 -6.232445 -26.240656 -0.679944 8.285203 24.367903 2.758750 1.791610 30.573952 0.273500 -3.363900 -9.293700 1.040481 4.011435 -5.364464 0.737628 24.186326 -89.055041 -17.488583 -21.904404 82.067382 -0.432639 -5.588458 -21.245143 -0.953900 6.219500 -17.422700 -3.598232 0.845427 9.461466 -0.046411 1.224694 -5.181574 -0.282399 0.646321 -6.674392 -10.175516 2.129264 -11.123380 22.400015 2.404984 -10.038847 6.131700 0.370200 -3.844000 -5.513360 -10.995873 -2.340749 -29.929701 -53.231295 31.857373 30.015755 -36.571264 -11.376619 -0.209178 0.063904 17.305723 71.757763 32.217195 58.318900 -7.125000 0.000000 0.000000 85.638400 -71.666900 -104.692800 5.928603 6.393245 3.979469 62.809707 52.832441 43.735094 -41.283027 43.010341 -17.873971 -0.801634 0.185595 18.467740 -71.545362 33.669638 -59.062900 7.125000 0.000000 0.000000 -18.892800 32.881600 -26.939400 
-6.851256 15.106723 1.860750 -179.439683 84.957048 -115.812860 -6.507602 -3.844552 -1.194808 -7.693075 -6.159147 -26.500725 -0.609318 8.408106 24.643431 2.847971 1.984896 31.894666 0.278300 -3.393100 -9.375000 1.071840 4.052063 -5.335628 0.725038 24.277052 -88.486548 -17.299399 -21.889046 81.533320 -0.456220 -5.474531 -21.229928 -1.022500 6.432700 -18.045200 -3.644683 0.772785 9.695342 0.045810 1.127410 -5.251194 -0.112919 0.623169 -6.876218 -10.250298 2.198931 -11.390052 22.372603 2.469509 -9.674625 6.110600 0.437000 -3.709600 -5.511848 -10.941580 -2.326958 -29.977810 -52.985421 31.839549 29.978767 -36.494601 -11.343917 -0.215020 0.068809 17.022968 71.245345 31.976092 57.371400 -7.125000 0.000000 0.000000 83.122900 -71.595400 -102.030100 5.941642 6.386037 4.036639 63.140698 53.035905 44.368399 -41.146598 42.923735 -17.778845 -0.778174 0.213835 18.015565 -72.682026 34.219057 -61.036200 7.125000 0.000000 0.000000 -19.239600 34.489300 -27.571200 
-6.772312 15.140297 1.866648 179.510810 84.916715 -116.843688 -6.456901 -3.952150 -1.224088 -7.452176 -6.122436 -26.767967 -0.677375 8.420526 24.905172 3.491917 0.478936 33.826455 0.197000 -2.857900 -7.883500 1.059364 4.062316 -5.314491 0.716362 24.275483 -87.849251 -17.072036 -21.863739 80.890082 -0.503626 -5.290831 -21.274158 -1.007900 6.387900 -17.914100 -3.642036 0.711963 9.892121 0.086455 1.048278 -5.307169 -0.091423 0.591468 -7.052155 -10.404048 2.266455 -11.470399 22.482698 2.532494 -9.436063 6.157500 0.487400 -3.638500 -5.513107 -10.928862 -2.330292 -30.194969 -52.885645 31.838184 29.946597 -36.406387 -11.322977 -0.223583 0.070016 17.386547 71.574226 32.581913 58.302200 -7.125000 0.000000 0.000000 86.264800 -71.910600 -105.089900 5.944833 6.368956 4.076669 63.324093 53.282006 44.840720 -40.611370 42.565317 -17.409658 -0.761649 0.225922 18.067501 -73.402347 34.439348 -62.230200 7.125000 0.000000 0.000000 -19.515200 35.412000 -28.041500 
-6.695182 15.178635 1.874361 177.604179 85.050482 -118.700378 -6.413108 -4.085145 -1.290978 -7.414591 -5.992740 -27.193414 -0.670011 8.539506 25.397252 3.940371 -0.609121 35.472709 0.211300 -2.959800 -8.166700 1.022636 4.052128 -5.282812 0.575290 24.240470 -87.249602 -16.882412 -21.840352 80.339705 -0.659022 -4.714014 -21.443518 -0.886700 6.002300 -16.791100 -3.780825 0.667183 10.037000 0.061695 0.985033 -5.337587 -0.118008 0.558466 -7.151156 -10.577633 2.277129 -11.635109 22.663844 2.530595 -9.184322 6.228700 0.510100 -3.539400 -5.515550 -10.921662 -2.328931 -30.257964 -52.806445 31.811792 29.850328 -36.291774 -11.253759 -0.221635 0.076947 17.477236 71.239138 32.283749 57.577700 -7.125000 0.000000 0.000000 84.095400 -71.780600 -102.886500 5.945207 6.349643 4.103935 63.460858 53.458254 45.142203 -40.443671 42.443268 -17.293646 -0.758695 0.238296 17.342655 -73.573601 35.263718 -62.926100 7.125000 0.000000 0.000000 -19.181800 36.287400 -27.575200 
